<svg width="57" height="59" viewBox="0 0 57 59" fill="none" xmlns="http://www.w3.org/2000/svg">
<path d="M4.70037 7.20837C6.67389 9.9789 9.25466 11.9334 11.7975 13.9639C13.5433 15.3492 15.6117 15.7097 17.756 15.7477C22.3672 15.8046 26.7507 14.6091 31.0773 13.1669C33.5062 12.3699 35.8403 11.2693 38.3072 10.662C46.2772 8.72647 52.5394 12.7684 56.1259 18.9926C56.1449 19.0306 56.1259 19.1065 56.1069 19.1824C56.05 19.1824 55.993 19.1824 55.9551 19.1634C52.6153 15.9944 48.7631 15.6338 44.5883 17.114C39.8633 18.7649 36.0111 21.7821 32.4056 25.1219C29.749 27.5888 27.1872 30.1886 24.3977 32.4847C21.5133 34.8567 18.1924 36.5076 14.4352 37.039C11.399 37.4564 8.51458 37.001 5.87689 35.388C5.06091 34.8947 4.66241 34.3064 4.66241 33.2627C4.70037 25.0081 4.68139 16.7724 4.68139 8.51773C4.70037 8.0623 4.70037 7.62585 4.70037 7.20837Z" fill="#D8D8D8"/>
<path d="M3.37205 58.1974C2.84072 58.1974 2.44222 58.1974 1.92986 58.1974C1.92986 57.7989 1.92986 57.4573 1.92986 57.1157C1.92986 40.151 1.92986 23.1673 1.94884 6.20256C1.94884 5.50044 1.85396 5.02603 1.13286 4.60855C-0.138543 3.90644 -0.347282 2.1037 0.5446 0.965124C1.41751 -0.154472 3.12536 -0.325258 4.18803 0.5856C5.3266 1.57236 5.47841 3.41305 4.26394 4.32391C3.41001 4.98808 3.37205 5.70918 3.37205 6.60106C3.37205 23.357 3.37205 40.113 3.37205 56.85C3.37205 57.2675 3.37205 57.666 3.37205 58.1974Z" fill="#D8D8D8"/>
</svg>
