<svg width="87" height="88" viewBox="0 0 87 88" fill="none" xmlns="http://www.w3.org/2000/svg">
<path d="M43.5 88C19.4756 88 -8.51306e-07 68.5244 -1.90145e-06 44.5L-3.8466e-06 0L87 -3.80289e-06L87 44.5C87 68.5244 67.5244 88 43.5 88Z" fill="white"/>
<path d="M70.3051 33.9763C69.4478 34.0543 68.7464 34.1062 68.0451 34.1841C68.0451 34.2621 68.0191 34.34 68.0191 34.4179C68.8763 34.7297 69.7336 35.0154 70.5908 35.3271C70.5648 35.431 70.5389 35.509 70.4869 35.6129C69.7855 35.6648 69.0841 35.6908 68.3828 35.7428C68.3828 35.8207 68.3568 35.8986 68.3568 35.9766C69.24 36.2623 70.0972 36.574 70.9805 36.8598C70.9545 36.9637 70.9545 37.0416 70.9285 37.1455C70.2012 37.1975 69.4998 37.2494 68.7724 37.3014C68.7724 37.3793 68.7724 37.4572 68.7724 37.5352C69.6037 37.8469 70.4349 38.1326 71.2662 38.4444C71.2402 38.5743 71.2143 38.7041 71.1623 38.834C70.4609 38.834 69.7595 38.834 69.0841 38.834C69.0582 38.912 69.0582 39.0159 69.0322 39.0938C69.8894 39.4055 70.7467 39.7172 71.5 40.029C69.6037 40.3926 67.6814 40.6264 65.889 41.12C64.0186 41.6395 62.8756 43.0423 62.3821 44.9386C60.6416 51.6147 56.4074 56.1607 50.043 58.6285C47.4972 59.6156 46.666 61.5119 46.5101 63.9798C46.4322 65.3565 46.3283 66.7333 45.1333 67.7984C45.1333 66.9931 45.1333 66.2917 45.1333 65.2786C44.5359 66.3437 44.1202 67.097 43.6786 67.8763C43.6007 67.8244 43.4968 67.7724 43.4189 67.7464C43.4968 67.0451 43.5747 66.3177 43.6526 65.6163C43.6007 65.5903 43.5228 65.5644 43.4708 65.5384C43.0032 66.3437 42.5356 67.1749 42.068 67.9802C41.9901 67.9543 41.9122 67.9023 41.8083 67.8763C41.8602 67.1749 41.9122 66.4736 41.9901 65.4085C41.2887 66.5515 40.8211 67.3308 40.3276 68.1361C40.2497 68.0841 40.1977 68.0582 40.1198 68.0062C40.1977 67.2788 40.2756 66.5255 40.3536 65.7982C40.2756 65.7722 40.2237 65.7722 40.1457 65.7462C39.7041 66.5255 39.2366 67.3048 38.7949 68.1101C38.691 68.0582 38.5611 68.0062 38.4572 67.9802C38.6131 67.3568 38.743 66.7074 38.8989 66.0839C39.9899 61.1223 34.8205 56.1087 30.0147 57.5115C27.3651 58.2908 25.9623 60.343 25.0012 62.7588C24.6634 63.6161 25.3648 64.5513 26.6637 65.3825C24.5336 66.0579 22.7931 64.3434 23.2607 61.7977C23.4945 60.4209 24.1439 59.0961 24.6375 57.7713C25.0531 56.6283 25.6246 55.5372 25.8584 54.3683C26.8195 49.2508 24.014 45.7699 18.1172 46.809C17.234 46.9648 16.4028 47.3025 15.3637 47.3285C16.117 46.783 16.8703 46.2375 17.6237 45.692C17.5977 45.64 17.5977 45.5621 17.5717 45.5101C16.8184 45.64 16.0391 45.7959 15.2857 45.9257C15.2338 45.8478 15.2078 45.7959 15.1559 45.7179C15.9092 45.1984 16.6366 44.6788 17.6756 43.9255C16.7145 44.0554 16.0391 44.1333 15.3637 44.2372C15.3117 44.1593 15.2598 44.0814 15.2078 44.0034C15.9092 43.5099 16.6106 43.0163 17.286 42.5228C17.286 42.4448 17.26 42.3669 17.26 42.3149C16.5586 42.4448 15.8572 42.5487 15.1559 42.6786C15.1039 42.6007 15.052 42.5228 15.026 42.4708C15.7533 41.9772 16.4807 41.4577 17.208 40.9641C17.208 40.8862 17.1821 40.8083 17.1821 40.7303C16.5067 40.8083 15.8313 40.9122 15.1559 40.9901C15.1039 40.9122 15.052 40.8343 15 40.7563C15.7274 40.3667 16.4028 39.8731 17.1821 39.6133C18.2471 39.2497 19.3641 39.1198 20.4552 38.808C22.0138 38.3405 23.0529 37.3274 23.4685 35.7168C25.2869 28.703 29.651 24.0531 36.3271 21.4814C39.1326 20.4163 40.7172 17.2731 40.1717 14.052C40.0678 13.4025 39.9379 12.7271 39.808 12.0777C39.912 12.0257 40.0159 11.9998 40.1198 11.9478C40.5354 12.7531 40.951 13.5584 41.4706 14.5455C41.4706 13.6363 41.4706 12.909 41.4706 12.1816C41.5745 12.1556 41.6784 12.1037 41.7823 12.0777C42.1979 12.9349 42.5876 13.7922 43.1071 14.8572C43.1071 13.9221 43.1071 13.1947 43.1071 12.4674C43.211 12.4154 43.289 12.3634 43.3929 12.3115C43.8085 13.1168 44.1982 13.9221 44.7437 14.9871C44.7437 14 44.7437 13.2726 44.7437 12.5453C44.8216 12.5193 44.9255 12.4674 45.0035 12.4414C45.3931 13.2207 45.7828 14 46.3543 15.143C46.4322 14.1818 46.4841 13.5324 46.5101 12.909C46.614 12.883 46.692 12.831 46.7959 12.8051C47.0297 13.4545 47.3674 14.052 47.4972 14.7274C47.6531 15.7145 47.5752 16.7276 47.757 17.6887C47.9389 18.5979 48.1726 19.5851 48.6662 20.3384C49.9651 22.3126 51.8094 22.4945 53.42 20.78C54.7189 19.4032 55.7579 17.7926 57.0048 16.3379C58.0959 15.0651 59.1869 13.7402 60.4858 12.6752C61.4209 11.9218 62.6678 11.3763 63.8368 11.1166C67.3697 10.3892 69.9674 13.1687 68.8763 16.5977C68.3048 18.3901 67.1878 20.0786 66.0189 21.6113C64.8499 23.1439 63.2393 24.3388 61.9145 25.7416C60.7195 26.9885 59.4467 28.3133 60.3818 30.2876C61.369 32.3917 63.2133 33.3788 65.5513 33.1451C68.2009 32.9113 68.9802 33.0411 70.3051 33.9763ZM42.8474 58.5246C53.2901 58.5246 61.4729 50.5237 61.5508 40.3407C61.6547 30.6772 53.9395 21.897 43.0032 21.7931C32.7943 21.6892 24.5336 29.9759 24.4297 40.1588C24.3257 50.5237 33.2099 58.6805 42.8474 58.5246ZM57.8101 21.871C57.8361 21.7152 57.8361 21.5853 57.8621 21.4294C58.0959 20.1566 59.031 19.5591 60.148 19.5331C60.7195 19.5331 61.6547 20.0267 61.8366 20.5202C62.3041 21.6892 61.3949 22.4166 60.5117 23.04C60.3818 23.1439 60.2 23.1959 60.0441 23.2738C58.1738 24.1051 56.4333 23.6894 54.7448 22.6763C54.4071 22.4685 54.0175 22.3386 53.3421 22.0269C54.563 24.131 57.966 25.1701 59.9662 24.131C60.9533 23.6115 61.8625 22.6503 62.486 21.6892C63.0315 20.806 62.7977 19.7409 61.8106 19.0655C60.7455 18.3122 59.6805 18.52 58.6933 19.2733C57.8881 19.9487 57.2906 20.7021 57.8101 21.871ZM62.8756 15.6106C62.1483 15.1949 61.7067 14.7274 61.369 14.8053C61.0053 14.8832 60.5117 15.4807 60.5117 15.8444C60.5117 16.1561 61.1352 16.6756 61.4989 16.6756C61.8625 16.6756 62.2262 16.1561 62.8756 15.6106ZM66.2007 18.4161C65.4993 18.0264 65.0317 17.5589 64.72 17.6368C64.3303 17.7407 63.8368 18.3122 63.8368 18.6499C63.8368 18.9616 64.4602 19.5071 64.8239 19.5071C65.1876 19.5331 65.5513 18.9876 66.2007 18.4161Z" fill="black"/>
<path d="M42.8473 58.5247C33.2098 58.6806 24.3257 50.5238 24.4296 40.159C24.5335 29.976 32.7682 21.6893 43.0032 21.7932C53.9395 21.8971 61.6547 30.6773 61.5508 40.3408C61.4468 50.5238 53.2901 58.5247 42.8473 58.5247ZM49.8351 50.7056C49.6533 50.6017 49.4455 50.4978 49.2636 50.3679C49.6533 49.6925 49.9131 48.8872 50.4586 48.3417C51.9652 46.7831 53.1602 45.0946 53.7057 42.9645C54.1213 41.25 55.7059 41.3019 57.2386 41.5617C58.3036 41.7435 58.7712 42.8606 58.2257 44.2373C57.4983 46.0557 56.6671 47.9261 55.576 49.5367C53.9655 51.9006 51.6795 53.5891 48.9519 54.5762C47.2115 55.1996 46.2763 54.5242 46.2763 52.6799C46.2763 51.9006 46.2763 51.1212 46.3542 50.3419C46.5101 48.6275 46.9517 47.0688 48.4324 45.9258C50.1209 44.601 50.8742 42.7047 50.9781 40.5746C51.0301 39.6394 51.4457 39.1978 52.277 39.1458C53.5498 39.0679 54.8487 38.964 56.1216 39.0419C57.94 39.1718 59.4466 38.1847 59.5246 36.4702C59.5765 35.3792 59.4726 34.1842 59.031 33.1971C56.6151 27.9757 52.5367 24.6767 46.8997 23.3518C44.1462 22.7024 42.7954 23.7415 42.5096 26.547C42.4577 27.0146 42.4836 27.5081 42.4836 27.9757C42.5616 29.7422 43.4967 30.7033 45.1333 31.4047C46.7439 32.0801 48.1726 33.1192 49.7052 33.9764C50.9262 34.6518 52.1471 35.4052 53.4719 35.8987C54.3811 36.2364 55.5241 35.4571 55.628 34.5479C55.68 33.9764 55.576 33.301 55.2903 32.8334C53.4459 30.0539 51.0041 27.9757 47.8089 26.9107C47.3933 26.7548 46.7958 27.0925 46.3023 27.1964C46.614 27.638 46.8738 28.1316 47.2115 28.5472C47.3673 28.7291 47.705 28.7291 47.9128 28.859C49.6273 30.1318 51.3678 31.4047 53.0563 32.7295C53.368 32.9633 53.4979 33.4569 53.7057 33.8206C53.6018 33.9245 53.4979 34.0544 53.42 34.1583C52.8225 33.8725 52.1211 33.7167 51.6795 33.275C49.939 31.5346 47.9908 30.1838 45.5229 29.6123C44.5618 29.3785 44.0682 27.8718 44.328 26.6249C44.5878 25.43 45.3671 24.8585 46.4841 25.1702C47.8869 25.5599 49.3156 26.0015 50.5885 26.6509C53.8616 28.3394 56.1995 30.9371 57.5763 34.3661C58.0958 35.6389 57.6802 36.9898 56.6671 37.0417C53.9135 37.1716 51.082 37.4314 48.9779 35.0415C47.5751 33.4569 45.7827 32.5217 43.6526 32.4957C42.4577 32.4698 42.016 31.8463 41.9381 30.8332C41.8602 29.7941 41.8862 28.755 41.8862 27.716C41.9121 24.4688 39.834 22.9881 36.7687 24.1052C33.7294 25.2222 31.2356 27.1185 29.2613 29.6642C27.6508 31.7424 26.5338 34.0803 25.9882 36.6521C25.4947 38.9121 26.3519 40.2629 28.6379 40.6525C29.3912 40.7824 30.1965 40.7564 30.9758 40.7304C32.5604 40.6785 33.5216 39.7953 34.171 38.3406C34.8983 36.756 35.8595 35.2753 36.7167 33.7426C37.3662 32.5996 38.2234 31.5346 38.665 30.2877C39.2105 28.8849 38.0675 27.5341 36.7167 27.69C34.3528 27.9757 29.4172 33.7686 29.5211 36.1585C29.5471 36.4442 29.7809 36.9378 29.9627 36.9638C30.2744 37.0157 30.716 36.8339 30.9498 36.6001C31.2096 36.3403 31.3395 35.9247 31.4954 35.587C32.4046 33.4829 33.7554 31.7164 35.5478 30.2877C35.8595 30.0279 36.2232 29.8721 36.5609 29.6642C36.6648 29.7422 36.7947 29.8461 36.8986 29.924C36.6128 30.5475 36.4829 31.3268 36.0154 31.7944C34.2749 33.5348 32.9501 35.4831 32.3006 37.9249C32.0409 38.938 30.4043 39.3796 29.0016 38.938C27.8846 38.5744 27.5728 37.7691 27.8586 36.678C28.0144 36.0546 28.1703 35.4311 28.4041 34.8077C29.9887 30.6254 32.8721 27.664 36.9765 25.9235C38.8209 25.1442 39.8859 25.9235 39.9119 27.8978C39.9119 28.4173 39.9379 28.9369 39.8859 29.4564C39.756 31.4307 39.3144 33.2231 37.6259 34.5999C36.0673 35.8727 35.236 37.6652 35.2101 39.7173C35.2101 40.8084 34.6386 41.224 33.7294 41.3019C32.6124 41.3799 31.4434 41.5357 30.3524 41.3539C27.3131 40.8603 25.5986 43.7957 26.7416 46.4973C29.2613 52.3941 33.7034 55.979 39.9639 57.1479C40.7692 57.3038 41.9641 56.9661 42.5616 56.4206C44.7956 54.3684 43.7305 50.1341 40.951 48.9911C39.3144 48.3157 37.8337 47.2247 36.2492 46.3415C35.1321 45.718 34.0411 44.9127 32.8462 44.575C32.2487 44.3932 31.2875 44.8868 30.7161 45.3284C30.0147 45.8999 30.1705 46.8091 30.7161 47.4325C31.885 48.8093 33.028 50.238 34.4308 51.381C35.5737 52.3162 37.0285 52.8877 38.4052 53.5111C38.7429 53.667 39.3144 53.3553 39.756 53.2514C39.5223 52.8098 39.2885 52.3681 39.0287 51.9525C38.9508 51.8226 38.7429 51.7967 38.5611 51.7187C36.3011 50.9654 34.6126 49.4327 33.054 47.7442C32.7942 47.4585 32.6383 47.0688 32.4305 46.7052C32.5344 46.5753 32.6124 46.4454 32.7163 46.3155C33.3397 46.6532 34.119 46.835 34.5866 47.3026C36.2232 48.9132 38.0416 50.1601 40.2756 50.7316C41.5744 51.0693 42.068 52.4461 41.6264 54.1865C41.3926 55.1217 40.4834 55.6153 39.1846 55.2516C34.197 53.8488 30.5082 50.8875 28.456 46.0557C27.9625 44.8608 28.482 43.3801 29.4172 43.3541C32.2227 43.2502 35.0802 42.9904 37.2103 45.4583C38.6131 47.0688 40.4574 47.9001 42.5875 47.9521C43.4448 47.978 43.9383 48.3157 44.0163 49.121C44.1462 50.5757 44.1981 52.0564 44.2241 53.5111C44.276 55.3035 45.2632 56.4985 47.0556 56.5245C48.0687 56.5245 49.1597 56.3946 50.0689 55.979C55.5501 53.4592 58.9531 49.2509 60.148 43.3281C60.5117 41.5877 59.7324 40.3148 58.0179 39.8992C54.9006 39.1199 52.3809 39.7173 51.5496 43.1203C51.2379 44.4192 50.0949 45.5362 49.3416 46.7311C48.7441 47.6663 48.0687 48.5755 47.6011 49.5886C47.1595 50.5238 47.0816 51.5369 48.0167 52.2902C48.9 52.9916 49.8351 52.7578 50.6664 52.1863C53.0043 50.5498 54.9786 48.5495 56.0436 45.8479C56.3294 45.1206 57.3685 44.0035 56.1216 43.484C54.9526 42.9904 54.7967 44.4192 54.459 45.1725C53.4719 47.4845 51.8873 49.3029 49.8351 50.7056Z" fill="#EBAB22"/>
<path d="M57.8101 21.8711C57.2906 20.6762 57.914 19.9228 58.7453 19.2994C59.7324 18.5461 60.7715 18.3382 61.8626 19.0916C62.8237 19.767 63.0835 20.858 62.538 21.7153C61.9145 22.6764 61.0313 23.6116 60.0182 24.1571C58.018 25.2222 54.615 24.1571 53.394 22.053C54.0435 22.3647 54.4331 22.4946 54.7968 22.7024C56.4853 23.7155 58.2258 24.1311 60.0961 23.2999C60.252 23.2219 60.4078 23.17 60.5637 23.0661C61.4209 22.4426 62.3561 21.6893 61.8885 20.5463C61.6807 20.0527 60.7715 19.5332 60.2 19.5592C59.083 19.5592 58.1478 20.1826 57.914 21.4555C57.8361 21.5854 57.8101 21.7412 57.8101 21.8711Z" fill="#EBAB22"/>
<path d="M62.8756 15.6105C62.2262 16.156 61.8625 16.6756 61.4988 16.6756C61.1352 16.6756 60.5117 16.13 60.5117 15.8443C60.5117 15.4806 61.0053 14.9091 61.369 14.8052C61.7067 14.7273 62.1742 15.1949 62.8756 15.6105Z" fill="#EBAB22"/>
<path d="M66.2007 18.4161C65.5512 18.9616 65.1876 19.5071 64.8239 19.5071C64.4602 19.5071 63.8368 18.9616 63.8368 18.6499C63.8108 18.3122 64.3303 17.7407 64.72 17.6368C65.0317 17.5588 65.4993 18.0264 66.2007 18.4161Z" fill="#EBAB22"/>
<path d="M49.8352 50.7054C51.8614 49.2767 53.446 47.4843 54.511 45.1983C54.8747 44.445 55.0046 43.0162 56.1736 43.5098C57.4205 44.0293 56.3814 45.1463 56.0956 45.8737C55.0306 48.5753 53.0563 50.5755 50.7184 52.2121C49.8871 52.7836 48.9519 53.0434 48.0687 52.316C47.1336 51.5627 47.2115 50.5236 47.6531 49.6144C48.1207 48.6013 48.7961 47.6921 49.3936 46.7569C50.1469 45.562 51.2899 44.445 51.6016 43.1461C52.4329 39.7431 54.9526 39.1456 58.0699 39.925C59.7844 40.3406 60.5377 41.6135 60.2 43.3539C59.005 49.2767 55.6021 53.5109 50.1209 56.0047C49.2117 56.4204 48.1207 56.5503 47.1076 56.5503C45.3152 56.5243 44.3021 55.3293 44.2761 53.5369C44.2501 52.0822 44.1722 50.6015 44.0683 49.1468C43.9903 48.3415 43.4968 48.0038 42.6395 47.9778C40.5094 47.9259 38.6651 47.1206 37.2623 45.484C35.1322 43.0162 32.2487 43.276 29.4692 43.3799C28.508 43.4059 27.9885 44.8866 28.508 46.0815C30.5602 50.9132 34.249 53.9006 39.2365 55.2774C40.5094 55.6411 41.4446 55.1475 41.6784 54.2123C42.12 52.4719 41.6524 51.0951 40.3276 50.7574C38.0676 50.1859 36.2492 48.939 34.6386 47.3284C34.1451 46.8608 33.3917 46.653 32.7683 46.3413C32.6644 46.4712 32.5864 46.6011 32.4825 46.7309C32.6903 47.0686 32.8462 47.4843 33.106 47.77C34.6906 49.4585 36.3791 50.9912 38.6131 51.7445C38.769 51.7965 39.0028 51.8484 39.0807 51.9783C39.3405 52.3939 39.5742 52.8355 39.808 53.2771C39.3405 53.3811 38.7949 53.6928 38.4572 53.5369C37.0805 52.9135 35.6257 52.342 34.4828 51.4068C33.106 50.2638 31.937 48.8351 30.768 47.4583C30.2225 46.8348 30.0667 45.8997 30.768 45.3542C31.3395 44.8866 32.3007 44.419 32.8982 44.6008C34.0931 44.9645 35.1841 45.7438 36.3011 46.3673C37.8598 47.2505 39.3405 48.3155 41.003 49.0169C43.7825 50.1599 44.8476 54.3942 42.6136 56.4463C42.0161 56.9919 40.8211 57.3296 40.0159 57.1737C33.7294 55.9788 29.2874 52.4199 26.7936 46.5231C25.6506 43.8215 27.3651 40.8601 30.4044 41.3797C31.4954 41.5615 32.6644 41.4056 33.7814 41.3277C34.6906 41.2498 35.2621 40.8342 35.2621 39.7431C35.2621 37.6909 36.1193 35.8985 37.6779 34.6256C39.3664 33.2489 39.808 31.4565 39.9379 29.4822C39.9639 28.9627 39.9639 28.4431 39.9639 27.9236C39.9639 25.9493 38.8729 25.17 37.0285 25.9493C32.8982 27.6638 30.0407 30.6512 28.4561 34.8335C28.2223 35.4309 28.0664 36.0544 27.9106 36.7038C27.6248 37.7948 27.9365 38.6001 29.0536 38.9638C30.4563 39.4054 32.0669 38.9638 32.3526 37.9507C33.0021 35.5348 34.3269 33.5606 36.0674 31.8201C36.5349 31.3525 36.6648 30.5992 36.9506 29.9498C36.8467 29.8719 36.7168 29.7679 36.6129 29.69C36.2232 29.8459 35.8595 30.0277 35.5478 30.2875C33.7554 31.7162 32.4046 33.5086 31.4954 35.5868C31.3395 35.9505 31.2096 36.3661 30.9499 36.5999C30.7161 36.8337 30.2745 37.0155 29.9628 36.9636C29.7809 36.9376 29.5471 36.444 29.5211 36.1583C29.4172 33.7684 34.3529 27.9755 36.7168 27.6898C38.0676 27.5079 39.2106 28.8588 38.6651 30.2875C38.1975 31.5084 37.3662 32.5994 36.6908 33.7424C35.8336 35.2491 34.8464 36.7298 34.1451 38.3404C33.4956 39.7951 32.5345 40.6783 30.9499 40.7302C30.1706 40.7562 29.3913 40.7822 28.6119 40.6523C26.3519 40.2627 25.4687 38.9119 25.9623 36.6519C26.5338 34.0801 27.6248 31.7422 29.2354 29.664C31.2096 27.1183 33.7034 25.222 36.7428 24.105C39.808 22.9879 41.8862 24.4946 41.8602 27.7158C41.8602 28.7548 41.8342 29.7939 41.9122 30.833C41.9901 31.8461 42.4577 32.4955 43.6267 32.4955C45.7828 32.5215 47.5492 33.4567 48.9519 35.0413C51.0821 37.4312 53.9136 37.1714 56.6411 37.0415C57.6542 36.9896 58.0699 35.6388 57.5503 34.3659C56.2255 30.9369 53.8876 28.3392 50.6145 26.6507C49.3156 25.9753 47.9129 25.5337 46.5101 25.17C45.3671 24.8583 44.6138 25.4038 44.354 26.6247C44.0942 27.8456 44.5878 29.3783 45.549 29.6121C48.0168 30.1836 49.9391 31.5344 51.7055 33.2748C52.1471 33.7165 52.8485 33.8723 53.446 34.1581C53.5499 34.0542 53.6538 33.9243 53.7317 33.8204C53.5239 33.4567 53.394 32.9631 53.0823 32.7293C51.3938 31.4045 49.6533 30.1316 47.9388 28.8588C47.731 28.7029 47.3933 28.7029 47.2375 28.547C46.8998 28.1314 46.614 27.6638 46.3283 27.1962C46.8478 27.0923 47.4193 26.7806 47.8349 26.9105C51.0301 28.0015 53.4719 30.0537 55.3163 32.8332C55.628 33.3008 55.706 33.9762 55.654 34.5477C55.5761 35.4569 54.4071 36.2622 53.4979 35.8985C52.1991 35.405 50.9782 34.6516 49.7313 33.9762C48.1986 33.145 46.7439 32.1059 45.1593 31.4045C43.5228 30.7031 42.5876 29.742 42.5096 27.9755C42.4837 27.5079 42.4837 27.0144 42.5356 26.5468C42.7954 23.7413 44.1722 22.7282 46.9257 23.3516C52.5628 24.6765 56.6411 27.9496 59.057 33.1969C59.4986 34.1581 59.6025 35.379 59.5506 36.47C59.4726 38.1845 57.966 39.1716 56.1476 39.0417C54.8747 38.9638 53.5759 39.0677 52.303 39.1456C51.4457 39.1976 51.0561 39.6652 51.0041 40.5744C50.8742 42.6785 50.1469 44.5748 48.4584 45.9256C46.9777 47.0946 46.5361 48.6273 46.3802 50.3417C46.3023 51.1211 46.3023 51.9004 46.3023 52.6797C46.3023 54.4981 47.2375 55.1994 48.9779 54.576C51.7055 53.5889 53.9655 51.9004 55.6021 49.5365C56.7191 47.9259 57.5244 46.0815 58.2517 44.2371C58.7972 42.8604 58.3297 41.7434 57.2646 41.5615C55.706 41.3017 54.1473 41.2498 53.7317 42.9643C53.2122 45.0944 52.0172 46.7829 50.4846 48.3415C49.965 48.887 49.6793 49.6923 49.2896 50.3677C49.4715 50.4976 49.6533 50.6015 49.8352 50.7054Z" fill="black"/>
</svg>
