<svg width="59" height="43" viewBox="0 0 59 43" fill="none" xmlns="http://www.w3.org/2000/svg">
<path d="M0.189723 14.2322C0.929795 14.4599 1.46113 14.6117 1.97349 14.7825C10.7025 17.7428 19.4126 20.741 28.1606 23.6633C28.8628 23.8911 29.7926 23.91 30.4947 23.6633C39.3187 20.722 48.1236 17.7048 56.9286 14.7066C57.365 14.5548 57.8205 14.4409 58.4467 14.2322C58.5036 14.8584 58.5985 15.3328 58.5985 15.8262C58.5985 23.0751 58.6175 30.305 58.5985 37.5539C58.5985 40.704 56.7957 42.5257 53.6267 42.5257C38.1611 42.5257 22.6765 42.5257 7.21092 42.5257C6.26211 42.5257 5.3133 42.5636 4.36449 42.5067C1.89758 42.3739 0.05689 40.4952 0.0379138 38.0663C0.0189376 30.5137 0.0189376 22.9802 0.0379138 15.4277C0.0379138 15.1051 0.113819 14.7825 0.189723 14.2322Z" fill="#D8D8D8"/>
<path d="M29.3751 0C37.3831 0 45.391 0 53.418 0C56.9665 0 58.6174 1.65093 58.6174 5.21846C58.6174 8.48236 58.6174 8.48236 55.5812 9.52605C47.1938 12.3915 38.7873 15.2379 30.3809 18.0464C29.7546 18.2551 28.9197 18.2741 28.2935 18.0464C19.2608 15.0481 10.2661 11.955 1.25238 8.91882C0.303567 8.59622 -0.0949328 8.15977 0.0189245 7.17301C0.0948293 6.45191 0.0379007 5.71184 0.0379007 4.97177C0.0379007 1.70786 1.76474 0 5.08557 0C13.1694 0 21.2723 0 29.3751 0Z" fill="#D8D8D8"/>
</svg>
