<svg width="73" height="65" viewBox="0 0 73 65" fill="none" xmlns="http://www.w3.org/2000/svg">
<path d="M32.0645 12.9359C35.2714 9.88073 38.6302 7.22406 42.3496 5.13667C45.4427 3.39086 48.6686 1.85379 51.9325 0.449552C54.2856 -0.575163 55.6519 0.164909 56.8284 2.53693C55.0067 3.5996 53.185 4.64329 51.3632 5.70596C51.4012 5.78187 51.4392 5.83879 51.4771 5.9147C53.185 5.25053 54.9118 4.58636 56.6197 3.88424C57.3028 3.5996 57.7582 3.67551 58.1378 4.3966C58.5173 5.15565 59.0486 5.85777 59.542 6.67375C56.1073 7.67949 52.9573 9.12168 50.2057 11.3988C50.4334 11.3229 50.6611 11.247 50.8888 11.1711C53.6214 10.2223 56.354 9.27349 59.0866 8.32468C60.0164 8.00208 60.7375 8.19184 61.2119 9.17861C61.5725 9.91868 62.0848 10.5828 62.5782 11.3419C60.8893 12.2717 59.2194 13.2016 57.5495 14.1124C57.5874 14.1693 57.6064 14.2263 57.6444 14.2832C59.1814 13.7139 60.7185 13.1446 62.2366 12.5564C62.9008 12.3097 63.3562 12.4046 63.7547 13.0687C64.9123 14.9284 66.1457 16.7311 67.3222 18.5339C64.9882 19.7104 62.749 20.83 60.5098 21.9496C60.5477 22.0255 60.5857 22.1014 60.6236 22.1583C62.4643 21.5131 64.305 20.811 66.1647 20.2228C68.0813 19.6345 68.1003 19.6914 69.1819 21.3613C69.3906 21.7029 69.5994 22.0445 69.8461 22.4999C65.918 23.259 62.3315 24.5304 59.1435 26.8455C59.3522 26.7885 59.5799 26.7695 59.7697 26.6936C62.711 25.4033 65.8041 24.6252 68.9921 24.2837C71.0795 24.056 71.0795 24.037 72.0283 26.1623C71.7057 26.2762 71.4021 26.409 71.0416 26.5418C71.497 26.6557 71.9524 26.6367 72.2371 26.8644C72.4079 26.9973 72.4268 27.5286 72.313 27.7753C72.1612 28.022 71.7816 28.2687 71.478 28.2876C64.6466 28.6292 58.7829 31.5516 53.0711 35.2899C46.1448 27.9081 39.1616 20.4884 32.0645 12.9359Z" fill="#D8D8D8"/>
<path d="M21.3999 23.2401C28.1933 30.47 34.9868 37.6809 41.7803 44.8919C40.6607 45.9356 39.6739 46.0305 38.1748 45.2524C37.0362 44.6642 35.9356 43.981 34.7591 43.4877C29.7684 41.3813 25.6315 42.4629 22.2728 46.7326C20.5839 48.8769 19.0089 51.1351 17.263 53.2414C13.8094 57.3972 9.76744 60.8699 4.96646 63.4127C3.1827 64.3615 2.04412 64.2666 0.924527 63.0901C-0.251998 61.8566 -0.308927 60.756 0.772717 58.9343C4.11253 53.3743 8.7617 49.1236 14.075 45.5181C15.2705 44.7021 16.504 43.9241 17.7374 43.1461C23.1077 39.7493 24.5309 35.214 22.064 29.3504C21.7035 28.5154 21.267 27.7184 20.8875 26.8835C20.2423 25.4792 20.3751 24.4735 21.3999 23.2401ZM2.21491 60.756C2.21491 61.3633 2.65136 61.8187 3.48631 61.8566C4.60591 61.8946 6.16196 60.4524 6.16196 59.3328C6.16196 58.5168 5.72551 58.0234 4.87158 57.9855C3.71403 57.9475 2.23388 59.3708 2.21491 60.756Z" fill="#D8D8D8"/>
<path d="M43.64 44.4363C36.41 36.7509 29.256 29.1605 22.0071 21.4561C24.3791 19.2549 26.6752 17.0726 29.0473 14.9473C30.015 14.0744 30.831 14.5678 31.609 15.3837C37.0742 21.2284 42.5583 27.0351 48.0424 32.8608C48.8394 33.7147 49.6364 34.5497 50.4334 35.3846C51.3063 36.3145 51.3253 37.1684 50.3955 38.0793C48.1942 40.1856 45.974 42.2351 43.64 44.4363Z" fill="#D8D8D8"/>
</svg>
